<svg xmlns="http://www.w3.org/2000/svg" viewBox="0 0 718.37 790.17"><defs><style>.cls-1{isolation:isolate;}.cls-2{fill:#fff;}</style></defs><g id="矩形_1_副本_9" data-name="矩形 1 副本 9" class="cls-1"><g id="矩形_1_副本_9-2" data-name="矩形 1 副本 9"><path d="M354.82,749l-38.88-17L271,663.06l.73-3.1-5.46-4.28a433.89,433.89,0,0,0-36-24.88c-20.34-12.48-44.42-23.51-44.66-23.62l-5.11-2.33.8-5.56a243.36,243.36,0,0,1,17.22-61.82l.89-2.1a57.9,57.9,0,0,1-11.7-8.47c-11.08-8.57-20-31.47-30.46-60.44-3.67-10.17-8.23-22.8-10.31-25.45l-.43-.37L146,440c-3.36-4.49-9.82-5.89-16.65-7.37-6.62-1.42-13.44-2.9-18.53-7.47-6.7-3.5-9.07-12.4-12.25-24.36-2.32-8.74-5-18.65-9.6-28.06C80.11,354.79,65.52,338.12,65.37,338L49.15,319.53l23.75,6.21c.33.09,31.59,8.24,73.74,15.94a230.16,230.16,0,0,1-21.91-88.58c-2.2-56.73,17.1-111.48,57.37-162.73L203.61,63l-8.33,33.79c-22.4,91,9.6,148.31,49.87,183.52,13.17-17.55,19.8-37.84,19.73-60.31a99.29,99.29,0,0,0-4.21-29.16l-6-17.29,16.41,8.08a130.09,130.09,0,0,1,35.54,27.75c6.94,7.75,13.26,17.66,17.87,25.68q-.86-22.45-10.2-46.67A184.17,184.17,0,0,0,289.67,144l-11.19-13.87,17.74,1.69c1.36.13,27.45,2.78,50.66,15.44-1.94-5.46-4.41-11.68-7.06-17.65l-9.22-20.8,19.78,11.24c1.59.9,39.25,22.55,74.21,64.18A328.67,328.67,0,0,1,450,218.88c2.35-8.6,4.32-17.85,5.44-23.16.32-1.51.58-2.72.77-3.56a11.34,11.34,0,0,1,1.78-4.23l0,0c17.17-21.91,45.5-27.95,46.7-28.2l14.79-3-6.52,13.63c-.07.16-8.36,18-8.36,44.76,0,31.48,15.33,58.71,20.48,67,51.87-44.36,69.57-106.4,52.62-184.44L571,66.67l19.87,24.62c23.63,29.26,40.09,60.86,48.92,93.94a228.82,228.82,0,0,1,6.59,81.68c-3.63,37-15,64.22-20.09,74.8,42.19-7.71,73.52-15.88,73.85-16l23.78-6.23L707.63,338c-.15.16-14.73,16.83-23.58,34.77-4.64,9.41-7.27,19.32-9.6,28.06-3.18,12-5.55,20.86-12.24,24.36-5.09,4.57-11.91,6.05-18.52,7.47C636.85,434.1,630.4,435.5,627,440l-.48.65-.43.37c-2.08,2.65-6.64,15.28-10.31,25.45-10.46,29-19.37,51.87-30.45,60.44a58.31,58.31,0,0,1-11.7,8.48l.89,2.09A280.5,280.5,0,0,1,585,566.86a286.88,286.88,0,0,1,6.83,32.43l.8,5.56-5.11,2.33c-.24.11-24.31,11.14-44.64,23.62a432.69,432.69,0,0,0-36,24.88L501.35,660l.72,3.1L457.16,732,418.24,749,386,805.79Zm44.86-81a12,12,0,0,0,7.22,2.45c2-.38,9.46-5.3,22.47-23.25C416.74,658.15,406.53,664.49,399.68,668.05Zm-56.05-20.8c13,18,20.52,22.87,22.47,23.25a12,12,0,0,0,7.22-2.45C366.47,664.49,356.26,658.15,343.63,647.25Zm-60.34-340.4,2.12,1.16c.28-1,.73-2.85,1.17-5.27A48.14,48.14,0,0,1,283.29,306.85Z" transform="translate(-27.24 -31)"/><path class="cls-2" d="M188,95C141.69,283,320.33,331.89,333.33,335.89c-6-3.32-22.71-13.5-41.17-24.31.48-1.16,6.65-21.76-.19-42.28-1.74,20.52-16.17,34.6-16.32,34.6h0c-8.84-5.94-18.12-12.36-24.56-19,34.55-46,16.66-96.55,16.66-96.55a123.56,123.56,0,0,1,33.27,26c13.12,14.65,24.25,38.19,24.25,38.19a134,134,0,0,1-3.14,34.35c32.77-74.29-26.63-147.62-26.63-147.62s39.35,3.77,62.85,25.08c2-7-11.67-37.8-11.67-37.8s37.67,21.41,72.17,62.49c30.56,35.86,53.35,84.82,53.35,84.82s-7.31-33.59-16.14-48.87c4.27-14.44,7.55-32.49,7.81-32.49,15.67-20,42.3-25.48,42.3-25.48s-9.1,19-9.1,48c0,33,15.91,61.9,21.91,71.4-12.5,16-80.85,48.35-80.85,48.35S628,293.91,585,96c100.67,124.67,32.25,246.86,32.25,246.86l-34.59,3.42S630.2,291,620.87,210c1.66,82.67-58.54,140.28-58.54,140.28s-54.88,8.83-80.05,15.51A903,903,0,0,0,387,397s-46.38-17.67-92.34-30a856.43,856.43,0,0,0-86.34-17.82s-60.16-59.62-56.39-137.72c-10.49,81.13,37.95,135,37.95,135S161,343,155,342c-4.33-11-66-121,33-247M382,252l8-23s-9.05-14.24-19.3-24.7A228,228,0,0,0,342,180s14.31,16.2,23.84,33.78A245.83,245.83,0,0,1,382,252m320,81s-15.26,17.31-24.67,36.41C666.4,391.58,665.9,416.15,658,418.84c-8,8.5-27.78,4.44-36.92,16.66-7.5,6.5-23.55,73.19-40.55,85.69-12.74,12.44-39.9,21-71.61,21a178.76,178.76,0,0,1-60.6-10.58C402.5,511,418.61,439,387.12,439c-.21,0-.41-.27-.58-.75-.15.48-.32.75-.54.75-31.5,0-15.38,72-61.17,92.65a179,179,0,0,1-60.62,10.58c-31.72,0-58.89-8.6-71.65-21-17-12.5-33.06-79.19-40.56-85.69-9.14-12.22-28.93-8.16-36.93-16.66-7.95-2.69-8.45-27.26-19.39-49.43C86.26,350.31,71,333,71,333s35.94,9.42,83.55,17.71c39.55,6.89,87.14,11.76,128.86,21.17,42,9.46,78,26.58,93.92,30.17l8.33,1.87c1.44-.21,5.63-.86,10.13-1.87,15.89-3.59,51.91-20.71,93.88-30.17,41.7-9.41,89.28-14.28,128.81-21.17C666.07,342.42,702,333,702,333M384.75,447.67a4.28,4.28,0,0,1,1.81.36,4.36,4.36,0,0,1,1.71-.31c2.7,0,8,2.09,11,17.07,2.33,10.66,12.59,51.64,29.43,63.7C452.34,549.66,489.71,551,499,551c1.37,0,2.12,0,2.12,0l-3.14,15.33L512.31,551a275.87,275.87,0,0,0,30.78-3.17,115.93,115.93,0,0,0,24.57-7.45,276.66,276.66,0,0,1,10.07,28.5,280.14,280.14,0,0,1,6.62,31.46,491.87,491.87,0,0,0-45.45,24,441.37,441.37,0,0,0-36.73,25.38l-7.86-29.66L517,581.84,484,619l10,42.67L452.1,726,413,743.17l-26.83,47.24-25.95-47.24L321,726l-42-64.35,10-42.67-33-37.14,22.71,38.28-7.86,29.66a441.8,441.8,0,0,0-36.75-25.38,492.28,492.28,0,0,0-45.47-24,236.56,236.56,0,0,1,16.7-60A115.9,115.9,0,0,0,230,547.85,276.16,276.16,0,0,0,260.76,551l14.38,15.31L272,551s.75,0,2.12,0c9.26,0,46.64-1.37,70.28-22.54,16.84-12.06,27.11-53,29.44-63.7,3.06-15,8.19-17.12,10.91-17.12M407,678c13.75,0,46.75-49.25,61-84-46.25,61.25-80,71-80,71s5.25,13,19,13m-41,0c13.75,0,19-13,19-13s-33.75-9.75-80-71c14.25,34.75,47.25,84,61,84M219.21,31l-43,54.73c-22.44,28.57-38.72,58.68-48.4,89.49a230.59,230.59,0,0,0-10.56,78.17,235.7,235.7,0,0,0,16.87,78.29c-34.64-6.76-59-13.11-59.31-13.19L27.24,306l32.51,36.88c.13.15,14.1,16.13,22.48,33.13,4.31,8.74,6.85,18.27,9.08,26.67A131.26,131.26,0,0,0,96,417.91c1,2.52,3.84,9.41,10.46,13.37,6.5,5.47,14.64,7.23,21.32,8.68,5.19,1.12,10.56,2.28,12.24,4.52l1,1.3.18.16c2,3.59,6,14.77,9,23.06,11.14,30.87,20.07,53.63,32.61,63.59a58.62,58.62,0,0,0,7.24,5.78c-2.16,5.41-6.11,15.77-9.13,26.44a291.36,291.36,0,0,0-7,33.41l-1.61,11.12L182.46,614a475.89,475.89,0,0,1,43.86,23.18,425.76,425.76,0,0,1,35.33,24.4l1.69,1.32-.37,1.56,3.51,5.38,41.95,64.34,2.45,3.75,4.1,1.8,34.5,15.12L373,797.63l12.93,23.54,13.26-23.36,24.36-42.91,34.59-15.16,4.1-1.8,2.45-3.75,41.94-64.35,3.5-5.37-.37-1.56,1.69-1.33a428.83,428.83,0,0,1,35.32-24.39c19.92-12.22,43.6-23.08,43.84-23.19l10.21-4.66-1.6-11.12a290.94,290.94,0,0,0-7-33.4c-3-10.68-7-21-9.12-26.45a60,60,0,0,0,7.23-5.78c12.54-10,21.46-32.72,32.6-63.59,3-8.29,7-19.47,9-23.07l.18-.15,1-1.3c1.68-2.25,7-3.4,12.22-4.52,6.68-1.45,14.82-3.21,21.32-8.69,6.62-4,9.43-10.85,10.45-13.36a129.92,129.92,0,0,0,4.66-15.19c2.24-8.41,4.77-17.93,9.08-26.68,8.38-17,22.34-33,22.48-33.13l32.35-36.84L698.2,318.49h0c-.29.08-24.78,6.46-59.52,13.23a245.31,245.31,0,0,0,15.12-64.08,236.32,236.32,0,0,0-6.8-84.35c-9.11-34.09-26-66.63-50.33-96.71L556.91,37.34l13.43,61.84c15.54,71.58.95,129.06-43.37,171-6-11.44-14.9-32.36-14.9-55.15,0-24.29,7.25-40.7,7.65-41.56l13.5-27.45-30.08,6.32c-1.3.26-31.94,6.79-50.81,30.57a15.69,15.69,0,0,0-3.07,6.06c-.1.35-.22.86-.37,1.51-.19.87-.46,2.11-.78,3.66-.38,1.76-.85,4-1.4,6.45-5.12-7.23-10.6-14.41-16.38-21.19-35.81-42.65-74.61-65-76.24-65.88L314.51,91.06,333,132.67l.12.29a160,160,0,0,0-36.16-8.58L261.35,121l22.5,27.78a177.25,177.25,0,0,1,23.58,42.75q2.37,6.15,4.15,12.2a138.7,138.7,0,0,0-37.2-28.8l-33.54-16.53,12.76,34.95a93.6,93.6,0,0,1,3.78,27.25,90.66,90.66,0,0,1-13.45,48.24c-35.49-34.26-61.63-87.92-41.37-170.22L219.21,31Z" transform="translate(-27.24 -31)"/></g></g><g id="矩形_1_副本_6" data-name="矩形 1 副本 6" class="cls-1"><g id="矩形_1_副本_6-2" data-name="矩形 1 副本 6"><path class="cls-2" d="M201,367s78.6,15.6,94,21,57,21,57,21-11.73-9.06-31-16C280.6,377.2,201,367,201,367Zm-66.9,8c-7.46,0-12.11,6.94-10.4,15.5s9.14,15.5,16.6,15.5,12.11-6.94,10.4-15.5S141.56,375,134.1,375Zm180,37.12C272.51,392.06,196,373.22,179,389c-12.65,11.77-6.48,36.73,2.44,63.63,8,24.15,16.47,50.44,29.56,60.37,27.67,21,94.33,13.33,111,0s25.67-54.67,16-78C335.16,428.15,331.37,420.44,314.1,412.12ZM638.23,375c-7.47,0-14.91,6.94-16.63,15.5S624.55,406,632,406s14.91-6.94,16.62-15.49S645.69,375,638.23,375Zm-67-8S491.51,377.2,451,393c-19.28,6.94-31,16-31,16s41.66-15.6,57.09-21S571.23,367,571.23,367ZM458,412.11c-17.29,8.32-21.09,16-23.93,22.88-9.68,23.33-.67,64.65,16,78s83.46,21,111.17,0c13.11-9.93,21.58-36.21,29.61-60.36,8.93-26.89,15.11-51.85,2.44-63.61C576.28,373.22,499.6,392.05,458,412.11Z" transform="translate(-27.24 -31)"/></g></g></svg>